<mxfile host="app.diagrams.net" modified="2023-02-25T02:39:06.687Z" agent="5.0 (Macintosh; Intel Mac OS X 10_15_7) AppleWebKit/605.1.15 (KHTML, like Gecko) Version/16.3 Safari/605.1.15" etag="xMrerJEh_aHpHesKetk3" version="20.8.23" type="github">
  <diagram id="C5RBs43oDa-KdzZeNtuy" name="Page-1">
    <mxGraphModel dx="890" dy="741" grid="1" gridSize="10" guides="1" tooltips="1" connect="1" arrows="1" fold="1" page="1" pageScale="1" pageWidth="827" pageHeight="1169" math="0" shadow="0">
      <root>
        <mxCell id="WIyWlLk6GJQsqaUBKTNV-0" />
        <mxCell id="WIyWlLk6GJQsqaUBKTNV-1" parent="WIyWlLk6GJQsqaUBKTNV-0" />
        <mxCell id="4zAdFhKJZDpfCJAiGH-f-0" value="" style="edgeStyle=orthogonalEdgeStyle;rounded=0;orthogonalLoop=1;jettySize=auto;html=1;" edge="1" parent="WIyWlLk6GJQsqaUBKTNV-1" source="4zAdFhKJZDpfCJAiGH-f-1" target="4zAdFhKJZDpfCJAiGH-f-3">
          <mxGeometry relative="1" as="geometry" />
        </mxCell>
        <mxCell id="4zAdFhKJZDpfCJAiGH-f-1" value="시작" style="ellipse;whiteSpace=wrap;html=1;" vertex="1" parent="WIyWlLk6GJQsqaUBKTNV-1">
          <mxGeometry x="180" y="80" width="120" height="80" as="geometry" />
        </mxCell>
        <mxCell id="4zAdFhKJZDpfCJAiGH-f-2" value="" style="edgeStyle=orthogonalEdgeStyle;rounded=0;orthogonalLoop=1;jettySize=auto;html=1;" edge="1" parent="WIyWlLk6GJQsqaUBKTNV-1" source="4zAdFhKJZDpfCJAiGH-f-3" target="4zAdFhKJZDpfCJAiGH-f-5">
          <mxGeometry relative="1" as="geometry" />
        </mxCell>
        <mxCell id="4zAdFhKJZDpfCJAiGH-f-3" value="_ : 1" style="whiteSpace=wrap;html=1;" vertex="1" parent="WIyWlLk6GJQsqaUBKTNV-1">
          <mxGeometry x="180" y="200" width="120" height="60" as="geometry" />
        </mxCell>
        <mxCell id="4zAdFhKJZDpfCJAiGH-f-4" value="" style="edgeStyle=orthogonalEdgeStyle;rounded=0;orthogonalLoop=1;jettySize=auto;html=1;" edge="1" parent="WIyWlLk6GJQsqaUBKTNV-1" source="4zAdFhKJZDpfCJAiGH-f-5" target="4zAdFhKJZDpfCJAiGH-f-8">
          <mxGeometry relative="1" as="geometry" />
        </mxCell>
        <mxCell id="4zAdFhKJZDpfCJAiGH-f-5" value="&quot;***********&quot; 출력" style="whiteSpace=wrap;html=1;" vertex="1" parent="WIyWlLk6GJQsqaUBKTNV-1">
          <mxGeometry x="130" y="320" width="220" height="65" as="geometry" />
        </mxCell>
        <mxCell id="4zAdFhKJZDpfCJAiGH-f-6" value="" style="edgeStyle=orthogonalEdgeStyle;rounded=0;orthogonalLoop=1;jettySize=auto;html=1;" edge="1" parent="WIyWlLk6GJQsqaUBKTNV-1" source="4zAdFhKJZDpfCJAiGH-f-8" target="4zAdFhKJZDpfCJAiGH-f-10">
          <mxGeometry relative="1" as="geometry" />
        </mxCell>
        <mxCell id="4zAdFhKJZDpfCJAiGH-f-7" style="edgeStyle=orthogonalEdgeStyle;rounded=0;orthogonalLoop=1;jettySize=auto;html=1;exitX=1;exitY=0.5;exitDx=0;exitDy=0;entryX=1;entryY=0.5;entryDx=0;entryDy=0;" edge="1" parent="WIyWlLk6GJQsqaUBKTNV-1" source="4zAdFhKJZDpfCJAiGH-f-8" target="4zAdFhKJZDpfCJAiGH-f-11">
          <mxGeometry relative="1" as="geometry">
            <mxPoint x="390" y="847" as="targetPoint" />
            <Array as="points">
              <mxPoint x="400" y="483" />
              <mxPoint x="400" y="700" />
            </Array>
          </mxGeometry>
        </mxCell>
        <mxCell id="4zAdFhKJZDpfCJAiGH-f-8" value="_이 8보다 작은가?" style="rhombus;whiteSpace=wrap;html=1;" vertex="1" parent="WIyWlLk6GJQsqaUBKTNV-1">
          <mxGeometry x="140" y="442.5" width="200" height="80" as="geometry" />
        </mxCell>
        <mxCell id="4zAdFhKJZDpfCJAiGH-f-9" style="edgeStyle=orthogonalEdgeStyle;rounded=0;orthogonalLoop=1;jettySize=auto;html=1;exitX=0;exitY=0.5;exitDx=0;exitDy=0;" edge="1" parent="WIyWlLk6GJQsqaUBKTNV-1" source="4zAdFhKJZDpfCJAiGH-f-10">
          <mxGeometry relative="1" as="geometry">
            <mxPoint x="240" y="290" as="targetPoint" />
            <Array as="points">
              <mxPoint x="80" y="590" />
              <mxPoint x="80" y="290" />
            </Array>
          </mxGeometry>
        </mxCell>
        <mxCell id="4zAdFhKJZDpfCJAiGH-f-10" value="_에 1을 더한다." style="whiteSpace=wrap;html=1;" vertex="1" parent="WIyWlLk6GJQsqaUBKTNV-1">
          <mxGeometry x="180" y="560" width="120" height="60" as="geometry" />
        </mxCell>
        <mxCell id="4zAdFhKJZDpfCJAiGH-f-11" value="끝" style="ellipse;whiteSpace=wrap;html=1;" vertex="1" parent="WIyWlLk6GJQsqaUBKTNV-1">
          <mxGeometry x="180" y="660" width="120" height="80" as="geometry" />
        </mxCell>
        <mxCell id="4zAdFhKJZDpfCJAiGH-f-12" value="&lt;font style=&quot;font-size: 21px;&quot;&gt;Yes&lt;/font&gt;" style="text;strokeColor=none;fillColor=none;align=left;verticalAlign=top;spacingLeft=4;spacingRight=4;overflow=hidden;rotatable=0;points=[[0,0.5],[1,0.5]];portConstraint=eastwest;whiteSpace=wrap;html=1;" vertex="1" parent="WIyWlLk6GJQsqaUBKTNV-1">
          <mxGeometry x="190" y="522.5" width="60" height="26" as="geometry" />
        </mxCell>
        <mxCell id="4zAdFhKJZDpfCJAiGH-f-13" value="&lt;font style=&quot;font-size: 22px;&quot;&gt;No&lt;/font&gt;" style="text;strokeColor=none;fillColor=none;align=left;verticalAlign=top;spacingLeft=4;spacingRight=4;overflow=hidden;rotatable=0;points=[[0,0.5],[1,0.5]];portConstraint=eastwest;whiteSpace=wrap;html=1;" vertex="1" parent="WIyWlLk6GJQsqaUBKTNV-1">
          <mxGeometry x="350" y="450" width="60" height="26" as="geometry" />
        </mxCell>
        <mxCell id="4zAdFhKJZDpfCJAiGH-f-14" value="&lt;span style=&quot;font-size: 22px;&quot;&gt;iceCreamHead&lt;/span&gt;" style="text;strokeColor=none;fillColor=none;align=center;verticalAlign=middle;spacingLeft=4;spacingRight=4;overflow=hidden;rotatable=0;points=[[0,0.5],[1,0.5]];portConstraint=eastwest;whiteSpace=wrap;html=1;" vertex="1" parent="WIyWlLk6GJQsqaUBKTNV-1">
          <mxGeometry x="40" y="54" width="170" height="26" as="geometry" />
        </mxCell>
        <mxCell id="4zAdFhKJZDpfCJAiGH-f-15" value="" style="edgeStyle=orthogonalEdgeStyle;rounded=0;orthogonalLoop=1;jettySize=auto;html=1;" edge="1" parent="WIyWlLk6GJQsqaUBKTNV-1" source="4zAdFhKJZDpfCJAiGH-f-16" target="4zAdFhKJZDpfCJAiGH-f-18">
          <mxGeometry relative="1" as="geometry" />
        </mxCell>
        <mxCell id="4zAdFhKJZDpfCJAiGH-f-16" value="시작" style="ellipse;whiteSpace=wrap;html=1;" vertex="1" parent="WIyWlLk6GJQsqaUBKTNV-1">
          <mxGeometry x="560" y="80" width="120" height="80" as="geometry" />
        </mxCell>
        <mxCell id="4zAdFhKJZDpfCJAiGH-f-17" value="" style="edgeStyle=orthogonalEdgeStyle;rounded=0;orthogonalLoop=1;jettySize=auto;html=1;" edge="1" parent="WIyWlLk6GJQsqaUBKTNV-1" source="4zAdFhKJZDpfCJAiGH-f-18" target="4zAdFhKJZDpfCJAiGH-f-20">
          <mxGeometry relative="1" as="geometry" />
        </mxCell>
        <mxCell id="4zAdFhKJZDpfCJAiGH-f-18" value="_ : 1" style="whiteSpace=wrap;html=1;" vertex="1" parent="WIyWlLk6GJQsqaUBKTNV-1">
          <mxGeometry x="560" y="200" width="120" height="60" as="geometry" />
        </mxCell>
        <mxCell id="4zAdFhKJZDpfCJAiGH-f-19" value="" style="edgeStyle=orthogonalEdgeStyle;rounded=0;orthogonalLoop=1;jettySize=auto;html=1;" edge="1" parent="WIyWlLk6GJQsqaUBKTNV-1" source="4zAdFhKJZDpfCJAiGH-f-20" target="4zAdFhKJZDpfCJAiGH-f-23">
          <mxGeometry relative="1" as="geometry" />
        </mxCell>
        <mxCell id="4zAdFhKJZDpfCJAiGH-f-20" value="&quot;&amp;nbsp; &amp;nbsp; ||&amp;nbsp; &amp;nbsp;&quot; 출력" style="whiteSpace=wrap;html=1;" vertex="1" parent="WIyWlLk6GJQsqaUBKTNV-1">
          <mxGeometry x="510" y="320" width="220" height="65" as="geometry" />
        </mxCell>
        <mxCell id="4zAdFhKJZDpfCJAiGH-f-21" value="" style="edgeStyle=orthogonalEdgeStyle;rounded=0;orthogonalLoop=1;jettySize=auto;html=1;" edge="1" parent="WIyWlLk6GJQsqaUBKTNV-1" source="4zAdFhKJZDpfCJAiGH-f-23" target="4zAdFhKJZDpfCJAiGH-f-25">
          <mxGeometry relative="1" as="geometry" />
        </mxCell>
        <mxCell id="4zAdFhKJZDpfCJAiGH-f-22" style="edgeStyle=orthogonalEdgeStyle;rounded=0;orthogonalLoop=1;jettySize=auto;html=1;exitX=1;exitY=0.5;exitDx=0;exitDy=0;entryX=1;entryY=0.5;entryDx=0;entryDy=0;" edge="1" parent="WIyWlLk6GJQsqaUBKTNV-1" source="4zAdFhKJZDpfCJAiGH-f-23" target="4zAdFhKJZDpfCJAiGH-f-26">
          <mxGeometry relative="1" as="geometry">
            <mxPoint x="770" y="847" as="targetPoint" />
            <Array as="points">
              <mxPoint x="780" y="483" />
              <mxPoint x="780" y="700" />
            </Array>
          </mxGeometry>
        </mxCell>
        <mxCell id="4zAdFhKJZDpfCJAiGH-f-23" value="_이 4보다 작은가?" style="rhombus;whiteSpace=wrap;html=1;" vertex="1" parent="WIyWlLk6GJQsqaUBKTNV-1">
          <mxGeometry x="520" y="442.5" width="200" height="80" as="geometry" />
        </mxCell>
        <mxCell id="4zAdFhKJZDpfCJAiGH-f-24" style="edgeStyle=orthogonalEdgeStyle;rounded=0;orthogonalLoop=1;jettySize=auto;html=1;exitX=0;exitY=0.5;exitDx=0;exitDy=0;" edge="1" parent="WIyWlLk6GJQsqaUBKTNV-1" source="4zAdFhKJZDpfCJAiGH-f-25">
          <mxGeometry relative="1" as="geometry">
            <mxPoint x="620" y="290" as="targetPoint" />
            <Array as="points">
              <mxPoint x="460" y="590" />
              <mxPoint x="460" y="290" />
            </Array>
          </mxGeometry>
        </mxCell>
        <mxCell id="4zAdFhKJZDpfCJAiGH-f-25" value="_에 1을 더한다." style="whiteSpace=wrap;html=1;" vertex="1" parent="WIyWlLk6GJQsqaUBKTNV-1">
          <mxGeometry x="560" y="560" width="120" height="60" as="geometry" />
        </mxCell>
        <mxCell id="4zAdFhKJZDpfCJAiGH-f-26" value="끝" style="ellipse;whiteSpace=wrap;html=1;" vertex="1" parent="WIyWlLk6GJQsqaUBKTNV-1">
          <mxGeometry x="560" y="660" width="120" height="80" as="geometry" />
        </mxCell>
        <mxCell id="4zAdFhKJZDpfCJAiGH-f-27" value="&lt;font style=&quot;font-size: 21px;&quot;&gt;Yes&lt;/font&gt;" style="text;strokeColor=none;fillColor=none;align=left;verticalAlign=top;spacingLeft=4;spacingRight=4;overflow=hidden;rotatable=0;points=[[0,0.5],[1,0.5]];portConstraint=eastwest;whiteSpace=wrap;html=1;" vertex="1" parent="WIyWlLk6GJQsqaUBKTNV-1">
          <mxGeometry x="570" y="522.5" width="60" height="26" as="geometry" />
        </mxCell>
        <mxCell id="4zAdFhKJZDpfCJAiGH-f-28" value="&lt;font style=&quot;font-size: 22px;&quot;&gt;No&lt;/font&gt;" style="text;strokeColor=none;fillColor=none;align=left;verticalAlign=top;spacingLeft=4;spacingRight=4;overflow=hidden;rotatable=0;points=[[0,0.5],[1,0.5]];portConstraint=eastwest;whiteSpace=wrap;html=1;" vertex="1" parent="WIyWlLk6GJQsqaUBKTNV-1">
          <mxGeometry x="730" y="450" width="60" height="26" as="geometry" />
        </mxCell>
        <mxCell id="4zAdFhKJZDpfCJAiGH-f-29" value="&lt;span style=&quot;font-size: 22px;&quot;&gt;iceCreamBody&lt;/span&gt;" style="text;strokeColor=none;fillColor=none;align=center;verticalAlign=middle;spacingLeft=4;spacingRight=4;overflow=hidden;rotatable=0;points=[[0,0.5],[1,0.5]];portConstraint=eastwest;whiteSpace=wrap;html=1;" vertex="1" parent="WIyWlLk6GJQsqaUBKTNV-1">
          <mxGeometry x="420" y="54" width="170" height="36" as="geometry" />
        </mxCell>
      </root>
    </mxGraphModel>
  </diagram>
</mxfile>
